<?xml version="1.0" encoding="UTF-8" standalone="no"?>
<!-- Created with Inkscape (http://www.inkscape.org/) -->

<svg
   width="210mm"
   height="297mm"
   viewBox="0 0 210 297"
   version="1.1"
   id="svg5"
   sodipodi:docname="Kristján_SimonSays.svg"
   inkscape:version="1.2.2 (732a01da63, 2022-12-09)"
   xmlns:inkscape="http://www.inkscape.org/namespaces/inkscape"
   xmlns:sodipodi="http://sodipodi.sourceforge.net/DTD/sodipodi-0.dtd"
   xmlns="http://www.w3.org/2000/svg"
   xmlns:svg="http://www.w3.org/2000/svg">
  <sodipodi:namedview
     id="namedview7"
     pagecolor="#ffffff"
     bordercolor="#000000"
     borderopacity="0.25"
     inkscape:showpageshadow="2"
     inkscape:pageopacity="0.0"
     inkscape:pagecheckerboard="0"
     inkscape:deskcolor="#d1d1d1"
     inkscape:document-units="mm"
     showgrid="false"
     inkscape:zoom="0.50646226"
     inkscape:cx="645.65522"
     inkscape:cy="551.86738"
     inkscape:window-width="1920"
     inkscape:window-height="991"
     inkscape:window-x="-9"
     inkscape:window-y="-9"
     inkscape:window-maximized="1"
     inkscape:current-layer="layer1" />
  <defs
     id="defs2" />
  <g
     inkscape:label="Layer 1"
     inkscape:groupmode="layer"
     id="layer1">
    <g
       id="panel9425">
      <path
         style="fill:none;stroke:#000000;stroke-width:1"
         d="M 76.25 200.6 L 94.0375 200.6 L 94.0375 197.5 L 109.087 197.5 L 109.087 200.6 L 126.85 200.6 L 126.85 197.5 L 141.9 197.5 L 141.9 200.6 L 159.662 200.6 L 159.662 197.5 L 174.713 197.5 L 174.713 200.6 L 192.5 200.6"
         id="path1674" />
      <path
         style="fill:none;stroke:#000000;stroke-width:1"
         d="M 192.5 200.6 L 192.5 223.15 L 189.4 223.15 L 189.4 238.1 L 192.5 238.1 L 192.5 260.65"
         id="path1676" />
      <path
         style="fill:none;stroke:#000000;stroke-width:1"
         d="M 192.5 260.65 L 174.713 260.65 L 174.713 263.75 L 159.662 263.75 L 159.662 260.65 L 141.9 260.65 L 141.9 263.75 L 126.85 263.75 L 126.85 260.65 L 109.088 260.65 L 109.088 263.75 L 94.0375 263.75 L 94.0375 260.65 L 76.25 260.65"
         id="path1678" />
      <path
         style="fill:none;stroke:#000000;stroke-width:1"
         d="M 76.25 260.65 L 76.25 238.1 L 79.35 238.1 L 79.35 223.15 L 76.25 223.15 L 76.25 200.6"
         id="path1680" />
    </g>
    <g
       id="panel7885">
      <path
         style="fill:none;stroke:#000000;stroke-width:1"
         d="M 8.1 79.35 L 30.6 79.35 L 30.6 76.25 L 45.65 76.25 L 45.65 79.35 L 68.15 79.35"
         id="path1683" />
      <path
         style="fill:none;stroke:#000000;stroke-width:1"
         d="M 68.15 79.35 L 68.15 94.0375 L 71.25 94.0375 L 71.25 109.087 L 68.15 109.087 L 68.15 126.85 L 71.25 126.85 L 71.25 141.9 L 68.15 141.9 L 68.15 159.662 L 71.25 159.662 L 71.25 174.713 L 68.15 174.713 L 68.15 189.4"
         id="path1685" />
      <path
         style="fill:none;stroke:#000000;stroke-width:1"
         d="M 68.15 189.4 L 45.65 189.4 L 45.65 192.5 L 30.6 192.5 L 30.6 189.4 L 8.1 189.4"
         id="path1687" />
      <path
         style="fill:none;stroke:#000000;stroke-width:1"
         d="M 8.1 189.4 L 8.1 174.713 L 5 174.713 L 5 159.662 L 8.1 159.662 L 8.1 141.9 L 5 141.9 L 5 126.85 L 8.1 126.85 L 8.1 109.088 L 5 109.088 L 5 94.0375 L 8.1 94.0375 L 8.1 79.35"
         id="path1689" />
    </g>
    <g
       id="panel9248">
      <path
         style="fill:none;stroke:#000000;stroke-width:1"
         d="M 76.25 76.25 L 94.0875 76.25 L 94.0875 79.35 L 109.038 79.35 L 109.038 76.25 L 126.9 76.25 L 126.9 79.35 L 141.85 79.35 L 141.85 76.25 L 159.713 76.25 L 159.713 79.35 L 174.662 79.35 L 174.662 76.25 L 192.5 76.25"
         id="path1692" />
      <path
         style="fill:none;stroke:#000000;stroke-width:1"
         d="M 192.5 76.25 L 192.5 94.0875 L 189.4 94.0875 L 189.4 109.038 L 192.5 109.038 L 192.5 126.9 L 189.4 126.9 L 189.4 141.85 L 192.5 141.85 L 192.5 159.713 L 189.4 159.713 L 189.4 174.662 L 192.5 174.662 L 192.5 192.5"
         id="path1694" />
      <path
         style="fill:none;stroke:#000000;stroke-width:1"
         d="M 192.5 192.5 L 174.662 192.5 L 174.662 189.4 L 159.713 189.4 L 159.713 192.5 L 141.85 192.5 L 141.85 189.4 L 126.9 189.4 L 126.9 192.5 L 109.037 192.5 L 109.037 189.4 L 94.0875 189.4 L 94.0875 192.5 L 76.25 192.5"
         id="path1696" />
      <path
         style="fill:none;stroke:#000000;stroke-width:1"
         d="M 76.25 192.5 L 76.25 174.662 L 79.35 174.662 L 79.35 159.713 L 76.25 159.713 L 76.25 141.85 L 79.35 141.85 L 79.35 126.9 L 76.25 126.9 L 76.25 109.037 L 79.35 109.037 L 79.35 94.0875 L 76.25 94.0875 L 76.25 76.25"
         id="path1698" />
    </g>
    <g
       id="panel1396">
      <path
         style="fill:none;stroke:#000000;stroke-width:1"
         d="M 200.6 79.35 L 223.1 79.35 L 223.1 76.25 L 238.15 76.25 L 238.15 79.35 L 260.65 79.35"
         id="path1701" />
      <path
         style="fill:none;stroke:#000000;stroke-width:1"
         d="M 260.65 79.35 L 260.65 94.0375 L 263.75 94.0375 L 263.75 109.087 L 260.65 109.087 L 260.65 126.85 L 263.75 126.85 L 263.75 141.9 L 260.65 141.9 L 260.65 159.662 L 263.75 159.662 L 263.75 174.713 L 260.65 174.713 L 260.65 189.4"
         id="path1703" />
      <path
         style="fill:none;stroke:#000000;stroke-width:1"
         d="M 260.65 189.4 L 238.15 189.4 L 238.15 192.5 L 223.1 192.5 L 223.1 189.4 L 200.6 189.4"
         id="path1705" />
      <path
         style="fill:none;stroke:#000000;stroke-width:1"
         d="M 200.6 189.4 L 200.6 174.713 L 197.5 174.713 L 197.5 159.662 L 200.6 159.662 L 200.6 141.9 L 197.5 141.9 L 197.5 126.85 L 200.6 126.85 L 200.6 109.088 L 197.5 109.088 L 197.5 94.0375 L 200.6 94.0375 L 200.6 79.35"
         id="path1707" />
    </g>
    <g
       id="panel2760">
      <path
         style="fill:none;stroke:#000000;stroke-width:1"
         d="M 268.75 76.25 L 286.587 76.25 L 286.587 79.35 L 301.537 79.35 L 301.537 76.25 L 319.4 76.25 L 319.4 79.35 L 334.35 79.35 L 334.35 76.25 L 352.212 76.25 L 352.212 79.35 L 367.162 79.35 L 367.162 76.25 L 385 76.25"
         id="path1710" />
      <path
         style="fill:none;stroke:#000000;stroke-width:1"
         d="m 385,76.25 v 17.8375 h -3.1 v 14.9505 h 6.80417 c 2.05038,5.954 2.9098,11.908 0,17.862 H 381.9 v 14.95 h 6.80417 c 2.39889,6.3905 3.00467,12.45497 0,17.863 H 381.9 v 14.949 H 385 V 192.5"
         id="path1712"
         sodipodi:nodetypes="cccccccccccccc" />
      <path
         style="fill:none;stroke:#000000;stroke-width:1"
         d="M 385 192.5 L 367.163 192.5 L 367.163 189.4 L 352.213 189.4 L 352.213 192.5 L 334.35 192.5 L 334.35 189.4 L 319.4 189.4 L 319.4 192.5 L 301.538 192.5 L 301.538 189.4 L 286.588 189.4 L 286.588 192.5 L 268.75 192.5"
         id="path1714" />
      <path
         style="fill:none;stroke:#000000;stroke-width:1"
         d="M 268.75 192.5 L 268.75 174.662 L 271.85 174.662 L 271.85 159.713 L 268.75 159.713 L 268.75 141.85 L 271.85 141.85 L 271.85 126.9 L 268.75 126.9 L 268.75 109.037 L 271.85 109.037 L 271.85 94.0875 L 268.75 94.0875 L 268.75 76.25"
         id="path1716" />
    </g>
    <g
       id="panel7798">
      <path
         style="fill:none;stroke:#000000;stroke-width:1"
         d="M 76.25 8.1 L 94.0375 8.1 L 94.0375 5 L 109.087 5 L 109.087 8.1 L 126.85 8.1 L 126.85 5 L 141.9 5 L 141.9 8.1 L 159.662 8.1 L 159.662 5 L 174.713 5 L 174.713 8.1 L 192.5 8.1"
         id="path1719" />
      <path
         style="fill:none;stroke:#000000;stroke-width:1"
         d="M 192.5 8.1 L 192.5 30.65 L 189.4 30.65 L 189.4 45.6 L 192.5 45.6 L 192.5 68.15"
         id="path1721" />
      <path
         style="fill:none;stroke:#000000;stroke-width:1"
         d="M 192.5 68.15 L 174.713 68.15 L 174.713 71.25 L 159.662 71.25 L 159.662 68.15 L 141.9 68.15 L 141.9 71.25 L 126.85 71.25 L 126.85 68.15 L 109.088 68.15 L 109.088 71.25 L 94.0375 71.25 L 94.0375 68.15 L 76.25 68.15"
         id="path1723" />
      <path
         style="fill:none;stroke:#000000;stroke-width:1"
         d="M 76.25 68.15 L 76.25 45.6 L 79.35 45.6 L 79.35 30.65 L 76.25 30.65 L 76.25 8.1"
         id="path1725" />
    </g>
    <circle
       style="fill:none;fill-opacity:1;stroke:#c90000;stroke-width:1.1;stroke-linejoin:round"
       id="path1922"
       cx="301.89014"
       cy="113.82086"
       r="11.95" />
    <circle
       style="fill:none;fill-opacity:1;stroke:#c90000;stroke-width:1.1;stroke-linejoin:round"
       id="circle2526"
       cx="352.56436"
       cy="113.82086"
       r="11.95" />
    <circle
       style="fill:none;fill-opacity:1;stroke:#c90000;stroke-width:1.1;stroke-linejoin:round"
       id="circle2528"
       cx="302.41254"
       cy="157.18129"
       r="11.95" />
    <circle
       style="fill:none;fill-opacity:1;stroke:#c90000;stroke-width:1.1;stroke-linejoin:round"
       id="circle2530"
       cx="353.08676"
       cy="157.18129"
       r="11.95" />
    <path
       id="circle2532"
       style="fill:none;fill-opacity:1;stroke:#c90000;stroke-width:1.1;stroke-linejoin:round"
       d="m 169.79692,42.90414 a 1.4499999,1.4499999 0 0 0 -1.45004,1.450041 1.4499999,1.4499999 0 0 0 1.45004,1.450041 1.4499999,1.4499999 0 0 0 1.45004,-1.450041 1.4499999,1.4499999 0 0 0 -1.45004,-1.450041 z" />
    <path
       id="path2558"
       style="fill:none;fill-opacity:1;stroke:#c90000;stroke-width:1.1;stroke-linejoin:round"
       d="m 164.34822,42.996491 a 1.4499999,1.4499999 0 0 0 -1.45004,1.450041 1.4499999,1.4499999 0 0 0 1.45004,1.450041 1.4499999,1.4499999 0 0 0 1.45004,-1.450041 1.4499999,1.4499999 0 0 0 -1.45004,-1.450041 z" />
    <path
       id="path2560"
       style="fill:none;fill-opacity:1;stroke:#c90000;stroke-width:1.1;stroke-linejoin:round"
       d="m 158.71482,43.181192 a 1.4499999,1.4499999 0 0 0 -1.45004,1.450041 1.4499999,1.4499999 0 0 0 1.45004,1.450041 1.4499999,1.4499999 0 0 0 1.45004,-1.450041 1.4499999,1.4499999 0 0 0 -1.45004,-1.450041 z" />
    <path
       id="path2562"
       style="fill:none;fill-opacity:1;stroke:#c90000;stroke-width:1.1;stroke-linejoin:round"
       d="m 153.54318,43.088841 a 1.4499999,1.4499999 0 0 0 -1.45004,1.450041 1.4499999,1.4499999 0 0 0 1.45004,1.450041 1.4499999,1.4499999 0 0 0 1.45004,-1.450041 1.4499999,1.4499999 0 0 0 -1.45004,-1.450041 z" />
    <path
       id="path2564"
       style="fill:none;fill-opacity:1;stroke:#c90000;stroke-width:1.1;stroke-linejoin:round"
       d="m 169.79692,47.79873 a 1.4499999,1.4499999 0 0 0 -1.45004,1.450041 1.4499999,1.4499999 0 0 0 1.45004,1.450041 1.4499999,1.4499999 0 0 0 1.45004,-1.450041 1.4499999,1.4499999 0 0 0 -1.45004,-1.450041 z" />
    <path
       id="path2566"
       style="fill:none;fill-opacity:1;stroke:#c90000;stroke-width:1.1;stroke-linejoin:round"
       d="m 164.34822,47.891081 a 1.4499999,1.4499999 0 0 0 -1.45004,1.450041 1.4499999,1.4499999 0 0 0 1.45004,1.450041 1.4499999,1.4499999 0 0 0 1.45004,-1.450041 1.4499999,1.4499999 0 0 0 -1.45004,-1.450041 z" />
    <path
       id="path2568"
       style="fill:none;fill-opacity:1;stroke:#c90000;stroke-width:1.1;stroke-linejoin:round"
       d="m 158.71482,48.075782 a 1.4499999,1.4499999 0 0 0 -1.45004,1.450041 1.4499999,1.4499999 0 0 0 1.45004,1.450041 1.4499999,1.4499999 0 0 0 1.45004,-1.450041 1.4499999,1.4499999 0 0 0 -1.45004,-1.450041 z" />
    <path
       id="path2570"
       style="fill:none;fill-opacity:1;stroke:#c90000;stroke-width:1.1;stroke-linejoin:round"
       d="m 153.54318,47.983431 a 1.4499999,1.4499999 0 0 0 -1.45004,1.450041 1.4499999,1.4499999 0 0 0 1.45004,1.450041 1.4499999,1.4499999 0 0 0 1.45004,-1.450041 1.4499999,1.4499999 0 0 0 -1.45004,-1.450041 z" />
    <path
       id="path2572"
       style="fill:none;fill-opacity:1;stroke:#c90000;stroke-width:1.1;stroke-linejoin:round"
       d="m 169.88927,52.78567 a 1.4499999,1.4499999 0 0 0 -1.45004,1.450041 1.4499999,1.4499999 0 0 0 1.45004,1.450041 1.4499999,1.4499999 0 0 0 1.45004,-1.450041 1.4499999,1.4499999 0 0 0 -1.45004,-1.450041 z" />
    <path
       id="path2574"
       style="fill:none;fill-opacity:1;stroke:#c90000;stroke-width:1.1;stroke-linejoin:round"
       d="m 164.44057,52.878021 a 1.4499999,1.4499999 0 0 0 -1.45004,1.450041 1.4499999,1.4499999 0 0 0 1.45004,1.450041 1.4499999,1.4499999 0 0 0 1.45004,-1.450041 1.4499999,1.4499999 0 0 0 -1.45004,-1.450041 z" />
    <path
       id="path2576"
       style="fill:none;fill-opacity:1;stroke:#c90000;stroke-width:1.1;stroke-linejoin:round"
       d="m 158.80717,53.062722 a 1.4499999,1.4499999 0 0 0 -1.45004,1.450041 1.4499999,1.4499999 0 0 0 1.45004,1.450041 1.4499999,1.4499999 0 0 0 1.45004,-1.450041 1.4499999,1.4499999 0 0 0 -1.45004,-1.450041 z" />
    <path
       id="path2578"
       style="fill:none;fill-opacity:1;stroke:#c90000;stroke-width:1.1;stroke-linejoin:round"
       d="m 153.63553,52.970371 a 1.4499999,1.4499999 0 0 0 -1.45004,1.450041 1.4499999,1.4499999 0 0 0 1.45004,1.450041 1.4499999,1.4499999 0 0 0 1.45004,-1.450041 1.4499999,1.4499999 0 0 0 -1.45004,-1.450041 z" />
    <rect
       style="fill:none;fill-opacity:1;stroke:#c90000;stroke-width:1.1;stroke-linecap:butt;stroke-linejoin:miter"
       id="rect2632"
       width="18.9"
       height="11.9"
       x="90.182983"
       y="46.873207" />
    <text
       xml:space="preserve"
       style="font-style:normal;font-variant:normal;font-weight:normal;font-stretch:normal;font-size:20.0167px;font-family:Consolas;-inkscape-font-specification:'Consolas, Normal';font-variant-ligatures:normal;font-variant-caps:normal;font-variant-numeric:normal;font-variant-east-asian:normal;fill:#000000;fill-opacity:1;stroke:none;stroke-width:1.1;stroke-linecap:butt;stroke-linejoin:miter"
       x="91.242546"
       y="236.04849"
       id="text7140"><tspan
         sodipodi:role="line"
         id="tspan7138"
         style="font-style:normal;font-variant:normal;font-weight:normal;font-stretch:normal;font-size:20.0167px;font-family:Consolas;-inkscape-font-specification:'Consolas, Normal';font-variant-ligatures:normal;font-variant-caps:normal;font-variant-numeric:normal;font-variant-east-asian:normal;fill:#000000;fill-opacity:1;stroke:none;stroke-width:1.1"
         x="91.242546"
         y="236.04849">Kristján</tspan></text>
  </g>
</svg>
